<svg id="lock" xmlns="http://www.w3.org/2000/svg" width="30" height="30" viewBox="0 0 30 30">
<g id="Grupo_4" data-name="Grupo 4">
<path id="Trazado_3" data-name="Trazado 3" d="M0,0H30V30H0Z" fill="none"/>
<path id="Trazado_4" data-name="Trazado 4" d="M0,0H30V30H0Z" fill="none" opacity="0.87"/>
</g>
<path id="Trazado_5" data-name="Trazado 5" d="M23.25,10H21.875V7.429A6.665,6.665,0,0,0,15,1,6.665,6.665,0,0,0,8.125,7.429V10H6.75A2.673,2.673,0,0,0,4,12.571V25.429A2.673,2.673,0,0,0,6.75,28h16.5A2.673,2.673,0,0,0,26,25.429V12.571A2.673,2.673,0,0,0,23.25,10ZM10.875,7.429A3.992,3.992,0,0,1,15,3.571a3.992,3.992,0,0,1,4.125,3.857V10h-8.25Zm12.375,18H6.75V12.571h16.5ZM15,21.571A2.673,2.673,0,0,0,17.75,19,2.673,2.673,0,0,0,15,16.429,2.673,2.673,0,0,0,12.25,19,2.673,2.673,0,0,0,15,21.571Z" fill="#ff4880"/>
</svg>